# xmcd CD database file
#
# Track frame offsets:
#	150
#	10118
#	21959
#	34630
#	45085
#	55350
#	67178
#	75132
#	84540
#	92480
#	100861
#	108868
#	118300
#	126397
#	134339
#	142826
#	154016
#	166163
#	176546
#	188018
#
# Disc length: 2685 seconds
#
# Revision: 2
# Processed by: cddbd v1.5.2PL0 Copyright (c) Steve Scherf et al.
# Submitted via: CDex 1.70beta2
#
DISCID=f40a7b14
DTITLE=Oldies But Goldies - Oldies But Goldies - Country Favourites CD-6_10
DYEAR=2005
DGENRE=Oldies
TTITLE0=Tennessee Ernie Ford - Shotgun Boogie  1951
TTITLE1=Bob Wills - San Antonio Rose  1944
TTITLE2=Porter Wagoner - A Satisfied Mind  1955
TTITLE3=Red Foley - Goodnight Irene  1950
TTITLE4=George Thumper Jones - Why Baby Why  1955
TTITLE5=Eddy Arnold - It Makes No Difference Now  1939
TTITLE6=George Morgan - Candy Kisses  1949
TTITLE7=Hank Snow - IÂ'm Moving On  1949
TTITLE8=Hank Thompson - Humpty Dumpty Heart  1948
TTITLE9=Ernest Tubb - Walking The Floor Over You  1941
TTITLE10=Kitty Wells - It WasnÂ't God Who Made Honky Tonk Angels  1952
TTITLE11=Hank Williams - Your CheatinÂ' Heart  1952
TTITLE12=Pee Wee King - Tennessee Waltz  1948
TTITLE13=Lefty Frizzell - If YouÂ've Got The Money  1950
TTITLE14=Tennessee Ernie Ford - Blackberry Boogie  1952
TTITLE15=Eddy Arnold - A Full Time Job  1952
TTITLE16=Jimmy Heap - Release Me  1954
TTITLE17=Faron Young - Live Fast, Love Hard, Die Young  1955
TTITLE18=Carl Smith - Loose Talk  1955
TTITLE19=Pee Wee King - Slow Poke  1951
EXTD=YEAR: 2005
EXTT0=
EXTT1=
EXTT2=
EXTT3=
EXTT4=
EXTT5=
EXTT6=
EXTT7=
EXTT8=
EXTT9=
EXTT10=
EXTT11=
EXTT12=
EXTT13=
EXTT14=
EXTT15=
EXTT16=
EXTT17=
EXTT18=
EXTT19=
PLAYORDER=
